# xmcd
#
# Track frame offsets:
#	150
#	12457
#	47052
#	72100
#	86100
#	99037
#	120852
#	140765
#	167382
#
# Disc length: 2522 seconds
#
# Revision: 1
# Processed by: cddbd v1.5.1PL2 Copyright (c) Steve Scherf et al.
# Submitted via: audiograbber 1.80
#
DISCID=6909d809
DTITLE=José de la Negreta - Sueño Gitano
DYEAR=1900
DGENRE=
TTITLE0=Palacio del rey (Bulerías)
TTITLE1=Para pedirle a nazareno (Soleá)
TTITLE2=Donde andará mi muchacho (Taranta-Cartagenera)
TTITLE3=Viva la isla también (Cantiña)
TTITLE4=Santas justa y rufina (Bulerías)
TTITLE5=Tu me vienes a mi culpando (Soleá por Bulerías)
TTITLE6=Quien me quisiera (Malagueña)
TTITLE7=Eran tan grandes mis penas (Siguiriyas)
TTITLE8=Eres la mas bonita de las Gitanas (Tangos-Bulerías)
EXTD=José de la Negreta: cante\nDomingo Rubichi: guitarra\nLuis de la Tota: pla
EXTD=mas, cajón
EXTT0=
EXTT1=
EXTT2=
EXTT3=
EXTT4=
EXTT5=
EXTT6=
EXTT7=
EXTT8=
PLAYORDER=
